<?xml version="1.0" encoding="utf-8"?>
<!-- Generator: Adobe Illustrator 27.5.0, SVG Export Plug-In . SVG Version: 6.00 Build 0)  -->
<svg version="1.1" xmlns="http://www.w3.org/2000/svg" xmlns:xlink="http://www.w3.org/1999/xlink" x="0px" y="0px"
	 viewBox="0 0 500 500" style="enable-background:new 0 0 500 500;" xml:space="preserve">
<g id="BACKGROUND">
	<rect style="fill:#FFF9DE;" width="500" height="500"/>
</g>
<g id="OBJECTS">
	<g>
		<path style="fill:#FFD766;" d="M365.463,386.61c-6.872-25.656-28.405-58.185-28.405-58.185
			c3.207-20.617-29.159-79.853-29.159-79.853l-56.788-20.185v-0.755l-1.062,0.378l-1.062-0.378v0.755l-56.788,20.185
			c0,0-32.366,59.236-29.159,79.853c0,0-21.533,32.528-28.405,58.185C127.763,412.267,121.349,500,121.349,500h127.638h2.124
			h127.639C378.749,500,372.335,412.267,365.463,386.61z"/>
		<g>
			<path style="fill:#FF9433;" d="M219.433,427.808c-3.36-7.497-7.485-14.718-12.572-21.184c-2.521-3.205-5.266-6.235-8.227-9.039
				c-3.595-3.406-7.559-6.154-11.705-8.849c-4.658-3.027-9.387-5.949-13.942-9.131c-4.313-3.012-8.76-6.216-12.245-10.191
				c-5.493-6.263-7.927-14.062-8.983-22.136c-6.324,11.426-13.623,26.266-17.123,39.332C127.763,412.267,121.349,500,121.349,500
				h112.203c-0.205-7.453-0.676-14.898-1.499-22.308C230.161,460.654,226.468,443.508,219.433,427.808z"/>
			<path style="fill:#FF9433;" d="M365.463,386.61c-3.5-13.066-10.799-27.905-17.123-39.332c-1.056,8.074-3.49,15.873-8.983,22.136
				c-3.486,3.974-7.932,7.178-12.245,10.191c-4.555,3.182-9.284,6.103-13.942,9.131c-4.146,2.694-8.11,5.443-11.705,8.849
				c-2.961,2.805-5.706,5.835-8.227,9.039c-5.087,6.466-9.212,13.687-12.572,21.184c-7.036,15.701-10.728,32.847-12.62,49.885
				c-0.823,7.41-1.293,14.854-1.499,22.308h112.203C378.749,500,372.335,412.267,365.463,386.61z"/>
		</g>
	</g>
	<g>
		<g>
			<g>
				<path style="fill:#FF9433;" d="M194.735,95.529c0,0-2.806-0.501-8.322,3.083c-5.515,3.585-11.545,17.896-11.545,17.896
					s-30.608,19.027-44.672,38.605c-14.063,19.578-12.133,34.469-12.133,34.469s2.206,25.921,21.233,45.223
					c1.943,1.971,3.251,4.072,4.032,6.256c1.056,2.951,0.988,6.183,0.09,9.186c-1.388,4.641-3.809,14.585-0.262,17.924
					c4.688,4.412,32.842-16.627,30.943-38.335c-2.585-29.546,0.103-72.363,5.618-92.217
					C185.232,117.764,189.929,106.815,194.735,95.529z"/>
				<path style="fill:#FFD766;" d="M119.537,197.856c2.789-0.14,5.575-0.353,8.352-0.704c7.637-0.965,15.782-2.932,21.93-7.814
					c7.205-5.721,10.767-15.088,9.804-24.153c-0.972-9.156-6.375-17.648-14.144-22.517c-0.88-0.551-1.78-1.059-2.696-1.535
					c-4.724,4.448-9.15,9.197-12.587,13.981c-14.063,19.578-12.133,34.469-12.133,34.469S118.343,192.824,119.537,197.856z"/>
				<path style="fill:#FFD766;" d="M142.473,253.771c4.27-4.609,7.487-10.123,8.702-16.352c1.145-5.865,0.758-12.709-3.238-17.477
					c-5.468-6.525-14.698-7.717-22.931-6.171c3.159,6.907,7.713,14.362,14.289,21.034c1.943,1.971,3.251,4.072,4.033,6.256
					c1.056,2.951,0.988,6.183,0.09,9.186C143.127,251.222,142.791,252.438,142.473,253.771z"/>
			</g>
			<path style="fill:#FFD766;" d="M356.556,270.136c-0.037,0.087-0.081,0.171-0.118,0.258c0.189-0.089,0.358-0.201,0.503-0.338
				c1.499-1.41,1.925-4.004,1.822-6.874C358.248,265.574,357.493,267.914,356.556,270.136z"/>
			<g>
				<path style="fill:#FF9433;" d="M305.363,97.415c0,0,2.806-0.501,8.321,3.083c5.515,3.585,11.545,17.896,11.545,17.896
					s30.608,19.027,44.672,38.605c14.063,19.578,12.133,34.469,12.133,34.469s-2.206,25.921-21.233,45.223
					c-1.943,1.971-3.251,4.072-4.032,6.256c-1.056,2.951-0.988,6.183-0.09,9.186c1.388,4.641,3.809,14.585,0.262,17.924
					c-4.688,4.412-32.842-16.627-30.943-38.335c2.585-29.546-0.103-72.363-5.618-92.217
					C314.865,119.65,310.168,108.701,305.363,97.415z"/>
				<path style="fill:#FFD766;" d="M343.102,142.275c-3.747,10.066-4.347,24.546,6.503,30.474
					c7.416,4.051,16.238,2.854,23.636-0.558c1.437-0.663,2.827-1.412,4.195-2.2c-1.775-3.978-4.202-8.351-7.536-12.993
					c-5.842-8.132-14.536-16.165-22.707-22.783C345.487,136.739,344.13,139.515,343.102,142.275z"/>
				<path style="fill:#FFD766;" d="M379.197,199.728c-3.696,0.632-7.507,2.146-9.915,5.146c-2.564,3.194-2.799,7.696-1.464,11.449
					c0.808,2.269,2.163,4.297,3.772,6.117c4.981-8.6,7.639-17.019,9.02-22.905C380.134,199.587,379.661,199.649,379.197,199.728z"/>
				<path style="fill:#FFD766;" d="M354.752,266.919c2.113-6.029,2.998-13.453,0.051-19.386c-2.02-4.067-6.036-6.374-10.458-6.92
					c-5.348-0.661-11.636,0.949-16.045,4.481c5.332,12.946,18.272,23.505,25.03,25.284
					C353.854,269.238,354.343,268.087,354.752,266.919z"/>
				<path style="fill:#FFD766;" d="M325.42,118.997c0.079-0.112,0.141-0.233,0.217-0.346c-0.266-0.169-0.408-0.257-0.408-0.257
					s-6.03-14.311-11.545-17.896c-5.515-3.585-8.321-3.083-8.321-3.083c3.489,8.195,6.923,16.229,10.652,27.607
					C319.785,124.174,323.166,122.187,325.42,118.997z"/>
				<path style="fill:#FFD766;" d="M332.023,223.952c8.174-1.442,16.379-4.702,21.406-11.638c4.071-5.617,7.59-14.667,3.81-21.282
					c-3.116-5.453-9.998-7.487-15.86-8.038c-4.965-0.467-10.12-0.083-15.029,1.127c0.766,13.648,0.867,27.944,0.148,40.557
					C328.346,224.498,330.19,224.275,332.023,223.952z"/>
			</g>
			<path style="fill:#FF9433;" d="M329.878,165.71c-1.662-10.973-9.975-60.848-21.28-68.495
				c-11.305-7.648-58.521-11.638-58.521-11.638s-47.215,3.99-58.52,11.638s-19.618,57.523-21.28,68.495
				c-1.662,10.973-2.66,50.54,2.993,62.51c5.652,11.97,18.953,18.953,25.27,28.928c6.317,9.975,4.987,57.855,51.538,57.855
				s45.22-47.88,51.538-57.855c6.318-9.975,19.618-16.958,25.27-28.928C332.538,216.25,331.54,176.682,329.878,165.71z"/>
			<path style="fill:#FFD766;" d="M243.994,86.164c0,0-9.714-9.571-6.295-13.218c3.418-3.646,8.204,10.027,8.204,10.027
				s-7.065-22.334,0-23.017c7.065-0.684,6.286,23.017,6.286,23.017s1.463-16.18,6.249-15.497c4.786,0.684-2.277,18.687-2.277,18.687
				S247.763,90.5,243.994,86.164z"/>
			<g>
				<path style="fill:#FFD766;" d="M321.836,191.899c-19.292-37.891-58.198-35.861-61.92-82.21
					c-0.791-9.845,0.163-17.271,2.149-22.873c-7.055-0.822-11.988-1.239-11.988-1.239s-4.703,0.398-11.493,1.182
					c2.123,5.663,3.165,13.26,2.348,23.432c-3.721,46.349-42.628,44.319-61.92,82.21c-19.292,37.891,14.234,53.175,14.234,53.175
					c16.336,11.421,8.76,22.014,21.071,44.694c9.496,17.495,27.856,20.253,35.76,20.6c7.904-0.348,26.264-3.106,35.76-20.6
					c12.311-22.68,4.735-33.273,21.071-44.694l0.894-0.21l-0.201-0.293C307.602,245.074,341.128,229.79,321.836,191.899z"/>
				<path style="fill:#154061;" d="M311.88,210.012c0,0-2.131,39.774-30.777,43.562c-28.647,3.788-31.025-14.915-31.025-14.915
					s-2.378,18.703-31.025,14.915c-28.647-3.788-30.778-43.562-30.778-43.562s-11.364,24.143,4.972,35.564
					c16.336,11.421,8.76,22.014,21.071,44.694c9.496,17.495,27.856,20.253,35.76,20.6c7.904-0.348,26.264-3.106,35.76-20.6
					c12.311-22.68,4.735-33.273,21.071-44.694C323.244,234.155,311.88,210.012,311.88,210.012z"/>
				<g>
					<path style="fill:#ED627D;" d="M281.824,296.251c-4.036-8.121-9.646-14.699-9.742-19.244
						c-0.189-8.883,6.615-22.927,6.615-22.927l-0.335-0.207c-26.056,2.274-28.285-15.215-28.285-15.215s-2.228,17.489-28.285,15.215
						l-0.335,0.207c0,0,6.804,14.044,6.615,22.927c-0.097,4.545-5.707,11.123-9.742,19.244c-3.852,7.751-6.27,16.908-1.078,27.06
						c10.631,20.79,32.825,19.656,32.825,19.656s22.193,1.134,32.825-19.656C288.094,313.159,285.675,304.002,281.824,296.251z"/>
				</g>
				<g style="opacity:0.5;">
					<path style="fill:#ED627D;" d="M236.318,270.222c7.611-2.892,16.304-3.649,24.172-1.344c4.202,1.231,8.134,3.109,11.714,5.487
						c0.914-8.771,6.492-20.285,6.492-20.285l-0.335-0.207c-26.056,2.274-28.285-15.215-28.285-15.215s-2.228,17.489-28.285,15.215
						l-0.335,0.207c0,0,5.606,11.572,6.499,20.352C230.627,272.781,233.408,271.328,236.318,270.222z"/>
				</g>
			</g>
		</g>
		<g>
			<g>
				<path style="fill:none;stroke:#154061;stroke-linecap:round;stroke-linejoin:round;stroke-miterlimit:10;" d="M187.444,195.578
					c0,0-2.081,54.161,31.608,57.996c28.711,3.268,31.025-14.915,31.025-14.915"/>
				<path style="fill:none;stroke:#154061;stroke-linecap:round;stroke-linejoin:round;stroke-miterlimit:10;" d="M181.036,199.341
					c0,0-0.508-8.564,6.383-8.564c6.891,0,7.316,7.447,7.316,7.447"/>
				<path style="fill:none;stroke:#154061;stroke-linecap:round;stroke-linejoin:round;stroke-miterlimit:10;" d="M312.71,195.578
					c0,0,2.081,54.161-31.607,57.996c-28.711,3.268-31.025-14.915-31.025-14.915"/>
				<path style="fill:none;stroke:#154061;stroke-linecap:round;stroke-linejoin:round;stroke-miterlimit:10;" d="M319.118,199.341
					c0,0,0.508-8.564-6.383-8.564s-7.316,7.447-7.316,7.447"/>
				
					<line style="fill:none;stroke:#154061;stroke-linecap:round;stroke-linejoin:round;stroke-miterlimit:10;" x1="250.077" y1="240.126" x2="250.077" y2="342.978"/>
			</g>
			<g>
				<path style="fill:#154061;" d="M250.077,183.876c-33.32,0-30.266,21.451-28.984,34.014
					c1.282,12.563,28.984,20.768,28.984,20.768s27.702-8.205,28.984-20.768C280.343,205.327,283.397,183.876,250.077,183.876z"/>
				<path style="opacity:0.5;fill:#154061;" d="M244.513,231.979c0,0-19.796-7.571-18.923-16.889
					C226.464,205.773,243.344,208.248,244.513,231.979z"/>
				<path style="opacity:0.5;fill:#154061;" d="M255.722,231.979c0,0,19.796-7.571,18.923-16.889
					C273.771,205.773,256.891,208.248,255.722,231.979z"/>
				<path style="fill:none;stroke:#154061;stroke-linecap:round;stroke-linejoin:round;stroke-miterlimit:10;" d="M227.259,183.876
					c0,0,5.604-5.121,22.103-5.121s23.037,5.121,23.037,5.121"/>
			</g>
			<g>
				<path style="fill:#FFD766;" d="M196.739,111.808c-1.829,0.585-3.742,1.391-4.767,3.015c-0.827,1.311-0.934,2.966-0.693,4.498
					c0.194,1.236,0.656,2.52,1.675,3.245c1.496,1.064,3.54,0.558,5.328,0.141c3.68-0.857,7.493-1.139,11.259-0.834
					c1.641,0.133,3.3,0.376,4.924,0.104s3.254-1.175,3.888-2.694c0.22-0.526,0.309-1.097,0.357-1.665
					c0.144-1.71-0.096-3.493-0.96-4.976c-1.921-3.298-5.894-2.946-9.21-2.848C204.538,109.912,200.552,110.588,196.739,111.808z"/>
				<path style="fill:#FFD766;" d="M298.915,111.808c1.829,0.585,3.742,1.391,4.767,3.015c0.827,1.311,0.934,2.966,0.693,4.498
					c-0.194,1.236-0.656,2.52-1.675,3.245c-1.496,1.064-3.54,0.558-5.328,0.141c-3.68-0.857-7.493-1.139-11.259-0.834
					c-1.641,0.133-3.3,0.376-4.924,0.104c-1.624-0.272-3.254-1.175-3.888-2.694c-0.22-0.526-0.309-1.097-0.357-1.665
					c-0.144-1.71,0.096-3.493,0.96-4.976c1.921-3.298,5.894-2.946,9.21-2.848C291.116,109.912,295.101,110.588,298.915,111.808z"/>
				<path style="fill:none;stroke:#154061;stroke-linecap:round;stroke-linejoin:round;stroke-miterlimit:10;" d="M193.066,140.052
					c0,0,11.718,11.74,26.472,9.047"/>
				<path style="fill:none;stroke:#154061;stroke-linecap:round;stroke-linejoin:round;stroke-miterlimit:10;" d="M211.384,134.692
					c0,0-3.541,16.205-17.418,21.891"/>
				<g>
					<defs>
						<path id="SVGID_1_" d="M268.716,167.148c0,0,7.437-11.837,21.981-13.335c14.544-1.498,22.038,6.668,22.038,6.668l2.095-18.505
							l-11.537-15.678l-24.573-1.277l-12.436,9.913L268.716,167.148z"/>
					</defs>
					<clipPath id="SVGID_00000116232266257950012670000006078264679732904604_">
						<use xlink:href="#SVGID_1_"  style="overflow:visible;"/>
					</clipPath>
					
						<ellipse transform="matrix(0.7071 -0.7071 0.7071 0.7071 -19.4641 248.3996)" style="clip-path:url(#SVGID_00000116232266257950012670000006078264679732904604_);fill:#FFF9DE;" cx="290.113" cy="147.695" rx="21.397" ry="21.397"/>
					
						<ellipse transform="matrix(0.8547 -0.5191 0.5191 0.8547 -34.5197 172.0466)" style="clip-path:url(#SVGID_00000116232266257950012670000006078264679732904604_);fill:#154061;" cx="290.113" cy="147.695" rx="16.75" ry="16.75"/>
				</g>
				<path style="fill:none;stroke:#154061;stroke-linecap:round;stroke-linejoin:round;stroke-miterlimit:10;" d="M269.921,165.504
					c0,0,6.447-11.119,20.776-12.314c14.329-1.195,22.038,7.29,22.038,7.29"/>
			</g>
			<path style="fill:none;stroke:#154061;stroke-linecap:round;stroke-linejoin:round;stroke-miterlimit:10;" d="M323.822,134.216
				c0,0,11.996,57.644,6.186,80.408c-5.81,22.764-15.969,29.234-15.969,29.234"/>
			<path style="fill:none;stroke:#154061;stroke-linecap:round;stroke-linejoin:round;stroke-miterlimit:10;" d="M175.58,134.216
				c0,0-11.996,57.644-6.186,80.408c5.81,22.764,15.969,29.234,15.969,29.234"/>
		</g>
	</g>
	<g>
		<path style="fill:#B75615;" d="M165.439,361.744v104.76l169.859,0.682V361.744H165.439z M173.239,374.361
			c-2.119,0-3.837-1.718-3.837-3.837c0-2.119,1.718-3.837,3.837-3.837s3.837,1.718,3.837,3.837
			C177.076,372.643,175.358,374.361,173.239,374.361z M327.364,374.361c-2.119,0-3.837-1.718-3.837-3.837
			c0-2.119,1.718-3.837,3.837-3.837s3.837,1.718,3.837,3.837C331.201,372.643,329.483,374.361,327.364,374.361z"/>
		<path style="fill:none;stroke:#154061;stroke-linecap:round;stroke-linejoin:round;stroke-miterlimit:10;" d="M175.799,373.159
			c0,0-21.691-37.868-20.97-47.849c0.903-12.499,9.86-12.499,9.86-12.499"/>
		<path style="fill:none;stroke:#154061;stroke-linecap:round;stroke-linejoin:round;stroke-miterlimit:10;" d="M324.804,373.159
			c0,0,21.691-37.868,20.97-47.849c-0.903-12.499-9.86-12.499-9.86-12.499"/>
		<g>
			<path style="fill:#ED627D;" d="M288.573,451.557c-2.031,5.083-6.338,6.238-10.132,3.62c-0.682-0.47-1.351-0.964-1.986-1.496
				c-2.029-1.698-4.351-2.588-6.992-2.8c-1.908-0.153-3.837-0.276-5.546-1.383c-2.196-1.424-3.235-4.408-2.382-6.919
				c0.932-2.745,2.833-4.627,5.42-5.654c2.821-1.119,5.348-2.659,7.807-4.387c0.833-0.585,1.78-1.091,2.75-1.381
				c3.337-0.999,6.395,0.807,7.443,4.334c0.302,1.018,0.415,2.093,0.724,3.109c0.608,1.998,1.184,4.018,1.974,5.947
				C288.735,447.197,289.216,449.824,288.573,451.557z"/>
			<path style="fill:#ED627D;" d="M273.894,418.48c0.484-0.581,1.202-1.735,2.19-2.566c1.986-1.67,4.506-1.203,5.972,0.931
				c2.22,3.231,1.254,8.894-1.911,11.206c-2.077,1.518-4.494,1.131-5.897-1.028C272.603,424.488,272.782,421.794,273.894,418.48z"/>
			<path style="fill:#ED627D;" d="M295.332,427.723c-1.332,2.657-3.025,4.719-5.943,5.364c-2.577,0.57-4.632-0.927-4.974-3.544
				c-0.471-3.6,2.242-7.904,5.691-9.028c3.558-1.159,6.268,1.304,5.703,5.21C295.706,426.444,295.474,427.143,295.332,427.723z"/>
			<path style="fill:#ED627D;" d="M298.508,434.34c2.139,0.846,2.965,2.573,2.558,4.997c-0.598,3.562-4.61,6.59-7.997,6.035
				c-2.006-0.329-3.286-1.78-3.381-3.834c-0.183-3.943,4.053-7.885,7.976-7.411C298.022,434.171,298.37,434.304,298.508,434.34z"/>
			<path style="fill:#ED627D;" d="M266.569,421.587c1.395,0.531,2.319,1.575,2.861,2.901c1.171,2.865,1.152,5.662-0.905,8.165
				c-1.557,1.893-3.977,2.04-5.821,0.449c-2.864-2.471-3.086-7.87-0.434-10.555C263.468,421.335,265.045,420.983,266.569,421.587z"
				/>
		</g>
	</g>
	<g>
		<path style="fill:#ED627D;" d="M374.266,303.793c0,0,51.903-12.409,48.438-28.95c-3.465-16.541-32.266,3.014-32.266,3.014
			s13.682-26.094-3.301-29.593C370.154,244.766,374.266,303.793,374.266,303.793z"/>
		<path style="fill:#ED627D;" d="M340.7,307.463c0,0,25.245-13.38,21.235-21.491s-16.323,5.881-16.323,5.881
			s3.6-15.358-5.672-14.899C330.668,277.415,340.7,307.463,340.7,307.463z"/>
		<path style="fill:#ED627D;" d="M123.147,303.793c0,0-51.903-12.409-48.438-28.95c3.465-16.541,32.266,3.014,32.266,3.014
			s-13.682-26.094,3.301-29.593C127.259,244.766,123.147,303.793,123.147,303.793z"/>
		<path style="fill:#ED627D;" d="M156.713,307.463c0,0-25.245-13.38-21.235-21.491c4.01-8.111,16.323,5.881,16.323,5.881
			s-3.6-15.358,5.672-14.899C166.744,277.415,156.713,307.463,156.713,307.463z"/>
	</g>
</g>
<g id="TEXTS">
	<text transform="matrix(1 0 0 1 173.2393 408.1953)"><tspan x="0" y="0" style="fill:#FFD766; font-family:'ArchivoBlack-Regular'; font-size:37.3595px;">ADOPT</tspan><tspan x="0" y="39.435" style="fill:#FFD766; font-family:'ArchivoBlack-Regular'; font-size:37.3595px;">ME!</tspan></text>
</g>
</svg>
